/* XPM */
static char * definator_xpm[] = {
"32 32 810 2",
"  	c None",
". 	c #0B171B",
"+ 	c #070F12",
"@ 	c #04090B",
"# 	c #020406",
"$ 	c #010101",
"% 	c #000000",
"& 	c #010000",
"* 	c #010302",
"= 	c #030709",
"- 	c #070F11",
"; 	c #071012",
"> 	c #050B0D",
", 	c #030507",
"' 	c #020205",
") 	c #010102",
"! 	c #183239",
"~ 	c #12262C",
"{ 	c #0C181D",
"] 	c #010303",
"^ 	c #000100",
"/ 	c #000201",
"( 	c #030607",
"_ 	c #091315",
": 	c #102226",
"< 	c #112528",
"[ 	c #0D1B1E",
"} 	c #091113",
"| 	c #060B0D",
"1 	c #040709",
"2 	c #030406",
"3 	c #020303",
"4 	c #010202",
"5 	c #244B55",
"6 	c #1D3C44",
"7 	c #14292E",
"8 	c #081214",
"9 	c #020505",
"0 	c #020405",
"a 	c #081011",
"b 	c #14282B",
"c 	c #1E3D41",
"d 	c #1E3D42",
"e 	c #172E32",
"f 	c #122124",
"g 	c #101C1F",
"h 	c #0D1619",
"i 	c #091012",
"j 	c #060C0D",
"k 	c #05080A",
"l 	c #040607",
"m 	c #2E616B",
"n 	c #254F56",
"o 	c #1B363C",
"p 	c #0B191B",
"q 	c #030608",
"r 	c #020302",
"s 	c #050B0B",
"t 	c #122224",
"u 	c #264548",
"v 	c #335E62",
"w 	c #30595F",
"x 	c #26464C",
"y 	c #253E44",
"z 	c #293E45",
"A 	c #27383E",
"B 	c #1B2A2F",
"C 	c #122023",
"D 	c #0E1A1E",
"E 	c #000101",
"F 	c #010100",
"G 	c #3B7781",
"H 	c #306169",
"I 	c #23454C",
"J 	c #112125",
"K 	c #050A0B",
"L 	c #010201",
"M 	c #020404",
"N 	c #091415",
"O 	c #1D3638",
"P 	c #366063",
"Q 	c #457A7D",
"R 	c #43777D",
"S 	c #3C6870",
"T 	c #456970",
"U 	c #55727B",
"V 	c #556E77",
"W 	c #415961",
"X 	c #2C454D",
"Y 	c #213A40",
"Z 	c #162A2E",
"` 	c #0B1518",
" .	c #04080A",
"..	c #020304",
"+.	c #030404",
"@.	c #07080B",
"#.	c #080D0E",
"$.	c #5296A0",
"%.	c #447D88",
"&.	c #335F66",
"*.	c #1D363B",
"=.	c #0B161A",
"-.	c #020305",
";.	c #030708",
">.	c #0E191B",
",.	c #254245",
"'.	c #417173",
").	c #548E90",
"!.	c #579399",
"~.	c #5A8F98",
"{.	c #6D969F",
"].	c #82A3AA",
"^.	c #86A3A9",
"/.	c #73919A",
"(.	c #587B84",
"_.	c #426770",
":.	c #2F4C53",
"<.	c #1C2C32",
"[.	c #111A1F",
"}.	c #0C1114",
"|.	c #080A0E",
"1.	c #030506",
"2.	c #020202",
"3.	c #020103",
"4.	c #040707",
"5.	c #0C1113",
"6.	c #1A2224",
"7.	c #242E33",
"8.	c #78BDC6",
"9.	c #69A6B0",
"0.	c #538791",
"a.	c #375E67",
"b.	c #1D383F",
"c.	c #0E1D21",
"d.	c #050C0E",
"e.	c #050A0C",
"f.	c #101E20",
"g.	c #29484B",
"h.	c #487779",
"i.	c #5F9A9B",
"j.	c #6EA9AE",
"k.	c #7FB1B7",
"l.	c #93BBC0",
"m.	c #A5C4C9",
"n.	c #ABC5CB",
"o.	c #9EBEC4",
"p.	c #83AEB5",
"q.	c #68989F",
"r.	c #50757D",
"s.	c #3C5259",
"t.	c #334148",
"u.	c #2C383F",
"v.	c #1D272C",
"w.	c #0E1215",
"x.	c #05070A",
"y.	c #05090A",
"z.	c #0E1517",
"A.	c #222C2E",
"B.	c #3B474A",
"C.	c #505B60",
"D.	c #A8DCE1",
"E.	c #9ACAD0",
"F.	c #82B2B8",
"G.	c #5F8F98",
"H.	c #3D6870",
"I.	c #214047",
"J.	c #0E1F23",
"K.	c #0A1416",
"L.	c #16282B",
"M.	c #305254",
"N.	c #4E7D81",
"O.	c #689FA1",
"P.	c #81B4B6",
"Q.	c #98C1C4",
"R.	c #ADCACD",
"S.	c #BBD2D4",
"T.	c #C1D8DB",
"U.	c #BAD8DD",
"V.	c #A6D0D7",
"W.	c #8CBBC2",
"X.	c #7299A1",
"Y.	c #617B84",
"Z.	c #5E6F78",
"`.	c #59686F",
" +	c #434F55",
".+	c #232B30",
"++	c #0E1518",
"@+	c #0E1519",
"#+	c #404B4F",
"$+	c #5C676A",
"%+	c #727B7E",
"&+	c #CDECEE",
"*+	c #C1DFE2",
"=+	c #AACDD1",
"-+	c #89B3B8",
";+	c #609096",
">+	c #3A6369",
",+	c #1C363C",
"'+	c #13262B",
")+	c #213B3F",
"!+	c #3C6367",
"~+	c #58888C",
"{+	c #73A3A6",
"]+	c #8DB5B7",
"^+	c #A4C0C2",
"/+	c #B5C9CB",
"(+	c #C1D2D4",
"_+	c #C9DCDF",
":+	c #CBE5E9",
"<+	c #C3E6EA",
"[+	c #B0D9DF",
"}+	c #9BC0C8",
"|+	c #8DA9B2",
"1+	c #8A9DA5",
"2+	c #829198",
"3+	c #68747B",
"4+	c #404C52",
"5+	c #212C33",
"6+	c #1F2A2F",
"7+	c #374247",
"8+	c #586264",
"9+	c #727A7C",
"0+	c #858B8C",
"a+	c #E2F3F4",
"b+	c #D7E9EB",
"c+	c #C4DBDD",
"d+	c #A5C6C9",
"e+	c #7EA7AC",
"f+	c #527E84",
"g+	c #2E5159",
"h+	c #233F47",
"i+	c #325258",
"j+	c #4E747A",
"k+	c #669396",
"l+	c #7FA7A9",
"m+	c #96B4B6",
"n+	c #A7BCBE",
"o+	c #B4C4C7",
"p+	c #BFCED1",
"q+	c #CADCDE",
"r+	c #D4EAED",
"s+	c #D8F2F6",
"t+	c #D5F0F4",
"u+	c #CBE6EA",
"v+	c #C2D8DE",
"w+	c #BBCDD4",
"x+	c #AEBDC4",
"y+	c #92A2AA",
"z+	c #6B7C86",
"A+	c #4A5C66",
"B+	c #41525A",
"C+	c #515F64",
"D+	c #697276",
"E+	c #7D8386",
"F+	c #8D9192",
"G+	c #EDF6F9",
"H+	c #E4EFF1",
"I+	c #D2E2E4",
"J+	c #B7D0D4",
"K+	c #94B8BD",
"L+	c #6B989F",
"M+	c #4A7580",
"N+	c #3E646F",
"O+	c #4C6E76",
"P+	c #64848A",
"Q+	c #78989B",
"R+	c #8BA6A9",
"S+	c #9CB1B2",
"T+	c #A8B8BB",
"U+	c #B2C1C4",
"V+	c #BCCDCF",
"W+	c #C9DDDF",
"X+	c #D8EDF0",
"Y+	c #E2F7FA",
"Z+	c #E9FBFD",
"`+	c #ECFAFB",
" @	c #EBF6F8",
".@	c #E6F0F3",
"+@	c #DCE7EB",
"@@	c #C9D5DB",
"#@	c #ACBDC6",
"$@	c #8FA2AC",
"%@	c #7E9199",
"&@	c #7D8C94",
"*@	c #848F95",
"=@	c #8C9498",
"-@	c #959B9D",
";@	c #F3F9FC",
">@	c #E9F2F3",
",@	c #D8E6E7",
"'@	c #C2D6DA",
")@	c #A5C5CA",
"!@	c #86B2B9",
"~@	c #6E9EA7",
"{@	c #65919A",
"]@	c #6C9199",
"^@	c #7E979C",
"/@	c #8A9FA4",
"(@	c #96A7AA",
"_@	c #A0AFB2",
":@	c #A9B8BB",
"<@	c #B3C2C5",
"[@	c #BED1D4",
"}@	c #CDE3E5",
"|@	c #DCF2F5",
"1@	c #E8FCFD",
"2@	c #F0FFFF",
"3@	c #F6FFFF",
"4@	c #FAFFFF",
"5@	c #FAFDFF",
"6@	c #F7FAFC",
"7@	c #EFF5F9",
"8@	c #E2EBEF",
"9@	c #D1DDE3",
"0@	c #C1CFD5",
"a@	c #B6C4CB",
"b@	c #B0BDC4",
"c@	c #AFB9BF",
"d@	c #AFB8BD",
"e@	c #F5FBFD",
"f@	c #ECF6F8",
"g@	c #DDEBEE",
"h@	c #CADEE2",
"i@	c #B4D1D7",
"j@	c #A0C8CE",
"k@	c #90BEC4",
"l@	c #87B4BA",
"m@	c #88ABB1",
"n@	c #8FA8AD",
"o@	c #97ABAF",
"p@	c #A0B1B6",
"q@	c #A8BABE",
"r@	c #B1C4C8",
"s@	c #BBCED2",
"t@	c #C6D9DD",
"u@	c #D6E9EE",
"v@	c #E4F7F9",
"w@	c #EEFEFF",
"x@	c #F5FFFF",
"y@	c #FCFFFF",
"z@	c #FEFEFF",
"A@	c #FDFEFF",
"B@	c #FCFEFF",
"C@	c #F8FCFD",
"D@	c #F3F9FB",
"E@	c #EBF3F6",
"F@	c #E3EDF1",
"G@	c #DFE8EC",
"H@	c #DBE5E8",
"I@	c #D7E1E5",
"J@	c #F1FBFD",
"K@	c #F0FAFB",
"L@	c #E7F4F7",
"M@	c #DAECF1",
"N@	c #CCE6EB",
"O@	c #BFDFE3",
"P@	c #B1D8DC",
"Q@	c #A1CBD1",
"R@	c #97BCC2",
"S@	c #97B4BA",
"T@	c #9DB8BC",
"U@	c #A6C1C5",
"V@	c #B1CED2",
"W@	c #BED9DF",
"X@	c #C8E2E7",
"Y@	c #D3E8ED",
"Z@	c #DFF2F5",
"`@	c #EBFAFC",
" #	c #F2FFFF",
".#	c #F8FEFF",
"+#	c #F7FDFE",
"@#	c #F7FCFE",
"##	c #F7FEFF",
"$#	c #F4FDFF",
"%#	c #F2FDFE",
"&#	c #F0FBFD",
"*#	c #EDF9FB",
"=#	c #EDF7F9",
"-#	c #F0F9FB",
";#	c #F1F9FB",
">#	c #EEF9FA",
",#	c #E7F7F9",
"'#	c #DEF3F6",
")#	c #CEEDF1",
"!#	c #BAE3E7",
"~#	c #A6D5DB",
"{#	c #9CCBD1",
"]#	c #9CCACF",
"^#	c #A4D2D7",
"/#	c #B1E0E5",
"(#	c #BFEDF1",
"_#	c #CAF3F7",
":#	c #D4F6F9",
"<#	c #DEF9FB",
"[#	c #E7FCFE",
"}#	c #EDFDFF",
"|#	c #EEFCFE",
"1#	c #EAF9FB",
"2#	c #E5F4F7",
"3#	c #E2F2F5",
"4#	c #E2F2F6",
"5#	c #E4F7FA",
"6#	c #E8FAFE",
"7#	c #E8FBFE",
"8#	c #E6FCFF",
"9#	c #E6FDFF",
"0#	c #E5FCFF",
"a#	c #E4FCFF",
"b#	c #E3FCFF",
"c#	c #DCE9ED",
"d#	c #E7F0F2",
"e#	c #EFF5F7",
"f#	c #F4F8FC",
"g#	c #F1FAFC",
"h#	c #EAFAFC",
"i#	c #DEF8FB",
"j#	c #CDF3F7",
"k#	c #BEEEF2",
"l#	c #B0E7EB",
"m#	c #A7E3E7",
"n#	c #A6E5E9",
"o#	c #ADEEF2",
"p#	c #B8F7FA",
"q#	c #C1FBFD",
"r#	c #C8FBFE",
"s#	c #CCFDFF",
"t#	c #D1FCFF",
"u#	c #D4FAFC",
"v#	c #D3F5F7",
"w#	c #C8E5EA",
"x#	c #C4DFE6",
"y#	c #C3E0E7",
"z#	c #C6E7ED",
"A#	c #C9EDF3",
"B#	c #CCF2F8",
"C#	c #CDF6FB",
"D#	c #CDF8FD",
"E#	c #CEF9FE",
"F#	c #CDFAFE",
"G#	c #CDFAFF",
"H#	c #BECFD7",
"I#	c #CEDAE0",
"J#	c #DDE6EA",
"K#	c #E8F0F3",
"L#	c #EAF6F8",
"M#	c #E7F9FA",
"N#	c #E0FAFC",
"O#	c #D9F9FC",
"P#	c #D3F9FC",
"Q#	c #CAF7FA",
"R#	c #C1F4F8",
"S#	c #B9F5F8",
"T#	c #B7F7FB",
"U#	c #B7FBFD",
"V#	c #B5FCFF",
"W#	c #B4FCFF",
"X#	c #B3FCFF",
"Y#	c #B2FBFE",
"Z#	c #B0F6F8",
"`#	c #ACEBEF",
" $	c #A7DEE3",
".$	c #A3D4DA",
"+$	c #9FCCD3",
"@$	c #A0CCD3",
"#$	c #A4D2DB",
"$$	c #A8D9E3",
"%$	c #AADEE8",
"&$	c #AAE5ED",
"*$	c #ACEBF3",
"=$	c #ADF0F7",
"-$	c #B0F3FA",
";$	c #B3F6FD",
">$	c #9CAEB5",
",$	c #A3B5BD",
"'$	c #B4C8CE",
")$	c #C6DCE1",
"!$	c #D1EAED",
"~$	c #D8F3F5",
"{$	c #DEF9FC",
"]$	c #E1FBFE",
"^$	c #E0FDFE",
"/$	c #DCFDFF",
"($	c #D5FDFE",
"_$	c #CCFCFF",
":$	c #C3FCFF",
"<$	c #B7FDFF",
"[$	c #ABFCFF",
"}$	c #A0FCFF",
"|$	c #9AFCFF",
"1$	c #97FAFD",
"2$	c #92F1F5",
"3$	c #8CE3E6",
"4$	c #86D4D8",
"5$	c #80C8CC",
"6$	c #7DBDC4",
"7$	c #7CBAC0",
"8$	c #7FBDC5",
"9$	c #83BFC9",
"0$	c #86C2CD",
"a$	c #85C7D4",
"b$	c #85CFDC",
"c$	c #87D9E4",
"d$	c #8DE1EC",
"e$	c #95EAF4",
"f$	c #708087",
"g$	c #677E88",
"h$	c #72919C",
"i$	c #87B1BB",
"j$	c #9CCDD5",
"k$	c #B1E3E8",
"l$	c #C7F2F4",
"m$	c #D8F9FB",
"n$	c #E0FCFE",
"o$	c #E0FEFF",
"p$	c #DAFDFF",
"q$	c #D1FEFF",
"r$	c #C4FDFF",
"s$	c #B3FDFF",
"t$	c #A3FDFF",
"u$	c #96FDFF",
"v$	c #8FFBFE",
"w$	c #8AF8FB",
"x$	c #85EEF1",
"y$	c #7EDFE1",
"z$	c #78CFD1",
"A$	c #70C1C4",
"B$	c #6AB6BA",
"C$	c #66ADB3",
"D$	c #63A9AF",
"E$	c #61A3AC",
"F$	c #609CA7",
"G$	c #5B9AA7",
"H$	c #5AA0AF",
"I$	c #61AFBE",
"J$	c #6DC3CF",
"K$	c #79D6E1",
"L$	c #3B484F",
"M$	c #30434C",
"N$	c #335560",
"O$	c #487986",
"P$	c #60A0AB",
"Q$	c #7DC4CC",
"R$	c #9ADEE4",
"S$	c #B5EEF2",
"T$	c #C9F7FA",
"U$	c #D2FBFD",
"V$	c #D1FDFE",
"W$	c #C9FEFF",
"X$	c #BDFEFF",
"Y$	c #ADFEFF",
"Z$	c #9DFDFF",
"`$	c #92FCFF",
" %	c #8CF9FC",
".%	c #87F4F7",
"+%	c #82EAED",
"@%	c #7CDCDF",
"#%	c #75CDCF",
"$%	c #6DC0C3",
"%%	c #65B5B6",
"&%	c #5DA9AC",
"*%	c #559DA1",
"=%	c #4B8C91",
"-%	c #40777F",
";%	c #366670",
">%	c #346672",
",%	c #3F7A88",
"'%	c #5097A5",
")%	c #60B5C2",
"!%	c #12181C",
"~%	c #0F1A1F",
"{%	c #142B32",
"]%	c #234A53",
"^%	c #39717D",
"/%	c #559EA8",
"(%	c #71C4CD",
"_%	c #8BDDE4",
":%	c #A2EDF0",
"<%	c #B1F4F7",
"[%	c #B6F8FB",
"}%	c #B3FBFD",
"|%	c #ABFCFE",
"1%	c #A1FDFF",
"2%	c #96FCFF",
"3%	c #8FFAFD",
"4%	c #8BF6F9",
"5%	c #86F0F3",
"6%	c #80E6E9",
"7%	c #7BDADD",
"8%	c #74CED0",
"9%	c #6CC2C4",
"0%	c #63B5B8",
"a%	c #59A8AA",
"b%	c #4E969A",
"c%	c #417D81",
"d%	c #2F5D62",
"e%	c #1F4046",
"f%	c #1C3941",
"g%	c #284F58",
"h%	c #386E7A",
"i%	c #498E9A",
"j%	c #040405",
"k%	c #081115",
"l%	c #12272D",
"m%	c #244B54",
"n%	c #3E7C84",
"o%	c #58A7B1",
"p%	c #6EC8D1",
"q%	c #82DEE4",
"r%	c #90EBEE",
"s%	c #98F3F5",
"t%	c #99F7F9",
"u%	c #97FAFC",
"v%	c #95FBFE",
"w%	c #92FBFE",
"x%	c #8EF8FB",
"y%	c #8AF3F7",
"z%	c #84EBEF",
"A%	c #7FE2E5",
"B%	c #79D8DB",
"C%	c #72CDD0",
"D%	c #69C1C4",
"E%	c #5FB3B7",
"F%	c #55A3A7",
"G%	c #488E93",
"H%	c #397175",
"I%	c #254B50",
"J%	c #152A2E",
"K%	c #122428",
"L%	c #1D3A40",
"M%	c #2C555F",
"N%	c #39707C",
"O%	c #091416",
"P%	c #193439",
"Q%	c #316369",
"R%	c #498F98",
"S%	c #5FB3BB",
"T%	c #71CED5",
"U%	c #7EE0E5",
"V%	c #86ECEF",
"W%	c #8AF2F5",
"X%	c #8DF6F9",
"Y%	c #8FF8FB",
"Z%	c #8DF5F8",
"`%	c #89F0F2",
" &	c #84E8EB",
".&	c #7EDFE3",
"+&	c #77D5D8",
"@&	c #6FCACD",
"#&	c #65BEC1",
"$&	c #5BADB2",
"%&	c #4D979E",
"&&	c #3E7D84",
"*&	c #2D5D64",
"=&	c #1B393E",
"-&	c #0E1C20",
";&	c #0D1A1D",
">&	c #182F34",
",&	c #24484F",
"'&	c #2F5E68",
")&	c #020203",
"!&	c #060D0F",
"~&	c #13272B",
"{&	c #275057",
"]&	c #3D7982",
"^&	c #519FA7",
"/&	c #63BCC4",
"(&	c #6FD0D6",
"_&	c #78DDE3",
":&	c #7EE6EB",
"<&	c #82EAF0",
"[&	c #86EFF3",
"}&	c #8AF3F6",
"|&	c #89F1F4",
"1&	c #86EBED",
"2&	c #82E4E7",
"3&	c #7BDBDF",
"4&	c #74D1D4",
"5&	c #6BC5C9",
"6&	c #61B6BC",
"7&	c #54A2A8",
"8&	c #43868E",
"9&	c #31656D",
"0&	c #20434B",
"a&	c #081316",
"b&	c #122226",
"c&	c #1B363B",
"d&	c #23484F",
"e&	c #0D1B20",
"f&	c #1D3A41",
"g&	c #2D5D66",
"h&	c #41838C",
"i&	c #52A2AB",
"j&	c #5DB5BF",
"k&	c #65C2CC",
"l&	c #69CBD4",
"m&	c #6FD2DA",
"n&	c #77DDE4",
"o&	c #7FE6EC",
"p&	c #83E9ED",
"q&	c #81E5E8",
"r&	c #7CDDE1",
"s&	c #77D4D8",
"t&	c #6EC9CD",
"u&	c #64BABF",
"v&	c #58A8AE",
"w&	c #4A9097",
"x&	c #377178",
"y&	c #254D55",
"z&	c #163037",
"A&	c #0D1B1F",
"B&	c #060C0F",
"C&	c #050A0D",
"D&	c #0A1315",
"E&	c #0F1E21",
"F&	c #152B30",
"G&	c #081114",
"H&	c #11242A",
"I&	c #1D3D45",
"J&	c #2B5B65",
"K&	c #397783",
"L&	c #438A96",
"M&	c #4B98A6",
"N&	c #52A4B0",
"O&	c #59B0BC",
"P&	c #64C2CC",
"Q&	c #6FD1DB",
"R&	c #75D8DE",
"S&	c #76D6DC",
"T&	c #73D0D5",
"U&	c #6CC6CC",
"V&	c #63B8BD",
"W&	c #58A5AD",
"X&	c #498F97",
"Y&	c #39747B",
"Z&	c #28535A",
"`&	c #193339",
" *	c #0F1F24",
".*	c #091417",
"+*	c #04090C",
"@*	c #060B0C",
"#*	c #0A1214",
"$*	c #03080A",
"%*	c #102025",
"&*	c #18333A",
"**	c #214751",
"=*	c #295661",
"-*	c #2F636F",
";*	c #37737E",
">*	c #408390",
",*	c #4E9CA9",
"'*	c #5AB3BE",
")*	c #62BDC6",
"!*	c #63BDC5",
"~*	c #5FB4BD",
"{*	c #58A8B0",
"]*	c #4E98A0",
"^*	c #42848C",
"/*	c #346D75",
"(*	c #1A363C",
"_*	c #0D1C20",
":*	c #05090C",
"<*	c #010203",
"[*	c #030505",
"}*	c #091217",
"|*	c #0E1D23",
"1*	c #12282E",
"2*	c #173139",
"3*	c #1D3E47",
"4*	c #26505B",
"5*	c #326A76",
"6*	c #3F838F",
"7*	c #49949F",
"8*	c #4C98A3",
"9*	c #468E98",
"0*	c #3E7D88",
"a*	c #346B74",
"b*	c #29545C",
"c*	c #1D3E45",
"d*	c #152D33",
"e*	c #0D1C1F",
"f*	c #030407",
"g*	c #030405",
"h*	c #060B0F",
"i*	c #081014",
"j*	c #0B191C",
"k*	c #11252B",
"l*	c #1A3842",
"m*	c #244D57",
"n*	c #2D606A",
"o*	c #316771",
"p*	c #2E606A",
"q*	c #28545D",
"r*	c #21444B",
"s*	c #162D33",
"t*	c #0C191C",
"u*	c #04080B",
"v*	c #060C0E",
"w*	c #0A1519",
"x*	c #0F2126",
"y*	c #142D33",
"z*	c #18343A",
"A*	c #162E33",
"B*	c #12262A",
"C*	c #0B171A",
"D*	c #04090A",
"E*	c #081113",
"F*	c #091215",
"G*	c #060E10",
"H*	c #020204",
"I*	c #020102",
". + @ # $ % % % & * = - ; > , ' ) $ % % % % % % % % % % % % % % ",
"! ~ { > ] ^ % % / ( _ : < [ } | 1 2 3 4 $ % % % % % % % % % % % ",
"5 6 7 8 9 ^ % $ 0 a b c d e f g h i j k l ] $ % % % % % % % % % ",
"m n o p q / % r s t u v w x y z A B C D _ @ 3 E % % % % % F $ 4 ",
"G H I J K 4 L M N O P Q R S T U V W X Y Z `  ...) % % F ) +.@.#.",
"$.%.&.*.=. .-.;.>.,.'.).!.~.{.].^./.(._.:.<.[.}.|.1.2.3.4.5.6.7.",
"8.9.0.a.b.c.d.e.f.g.h.i.j.k.l.m.n.o.p.q.r.s.t.u.v.w.x.y.z.A.B.C.",
"D.E.F.G.H.I.J.K.L.M.N.O.P.Q.R.S.T.U.V.W.X.Y.Z.`. +.+++@+A.#+$+%+",
"&+*+=+-+;+>+,+'+)+!+~+{+]+^+/+(+_+:+<+[+}+|+1+2+3+4+5+6+7+8+9+0+",
"a+b+c+d+e+f+g+h+i+j+k+l+m+n+o+p+q+r+s+t+u+v+w+x+y+z+A+B+C+D+E+F+",
"G+H+I+J+K+L+M+N+O+P+Q+R+S+T+U+V+W+X+Y+Z+`+ @.@+@@@#@$@%@&@*@=@-@",
";@>@,@'@)@!@~@{@]@^@/@(@_@:@<@[@}@|@1@2@3@4@5@6@7@8@9@0@a@b@c@d@",
"e@f@g@h@i@j@k@l@m@n@o@p@q@r@s@t@u@v@w@x@4@y@z@A@B@C@D@E@F@G@H@I@",
"J@K@L@M@N@O@P@Q@R@S@T@U@V@W@X@Y@Z@`@ #3@.#+#@#+#.#.###$#%#&#&#*#",
"=#-#;#>#,#'#)#!#~#{#]#^#/#(#_#:#<#[#}#|#1#2#3#4#5#6#7#8#9#0#a#b#",
"c#d#e#f#g#h#i#j#k#l#m#n#o#p#q#r#s#t#u#v#)#w#x#y#z#A#B#C#D#E#F#G#",
"H#I#J#K#L#M#N#O#P#Q#R#S#T#U#V#W#X#Y#Z#`# $.$+$@$#$$$%$&$*$=$-$;$",
">$,$'$)$!$~${$]$^$/$($_$:$<$[$}$|$1$2$3$4$5$6$7$8$9$0$a$b$c$d$e$",
"f$g$h$i$j$k$l$m$n$o$p$q$r$s$t$u$v$w$x$y$z$A$B$C$D$E$F$G$H$I$J$K$",
"L$M$N$O$P$Q$R$S$T$U$V$W$X$Y$Z$`$ %.%+%@%#%$%%%&%*%=%-%;%>%,%'%)%",
"!%~%{%]%^%/%(%_%:%<%[%}%|%1%2%3%4%5%6%7%8%9%0%a%b%c%d%e%f%g%h%i%",
"j% .k%l%m%n%o%p%q%r%s%t%u%v%w%x%y%z%A%B%C%D%E%F%G%H%I%J%K%L%M%N%",
"% 4 ( O%P%Q%R%S%T%U%V%W%X%Y%Y%Z%`% &.&+&@&#&$&%&&&*&=&-&;&>&,&'&",
"% % )&!&~&{&]&^&/&(&_&:&<&[&}&|&1&2&3&4&5&6&7&8&9&0&l%a&8 b&c&d&",
"% % $  .e&f&g&h&i&j&k&l&m&n&o&p&q&r&s&t&u&v&w&x&y&z&A&B&C&D&E&F&",
"% % / , G&H&I&J&K&L&M&N&O&P&Q&R&S&T&U&V&W&X&Y&Z&`& *.*+*1.q @*#*",
"% % E ..$*k%%*&***=*-*;*>*,*'*)*!*~*{*]*^*/*Z&(*_*- :*, 4 $ <*[*",
"% % % $ ] , > }*|*1*2*3*4*5*6*7*8*9*0*a*b*c*d*e*B&f*..$ ^ % % $ ",
"% % % % % E 4 g*1 h*i*j*k*l*m*n*o*p*q*r*s*t*- u*M ) % % % % % % ",
"% % % % % % % % $ <*-.q v*w*x*y*z*&*A*B*C*D*3 ) ^ % % % % % % % ",
"% % % % % % % % % % E $ )&#  .!&E*F*E*G*k H*% % % % % % % % % % ",
"% % % % % % % % % % % % % $ $ 2...0 ..] I*$ % % % % % % % % % % "};
